<?xml version="1.0" standalone="no"?>
<!DOCTYPE svg PUBLIC "-//W3C//DTD SVG 20010904//EN"
 "http://www.w3.org/TR/2001/REC-SVG-20010904/DTD/svg10.dtd">
<svg version="1.0" xmlns="http://www.w3.org/2000/svg"
 width="240.000000pt" height="240.000000pt" viewBox="0 0 240.000000 240.000000"
 preserveAspectRatio="xMidYMid meet">
<metadata>
Created by potrace 1.11, written by Peter Selinger 2001-2013
</metadata>
<g transform="translate(0.000000,240.000000) scale(0.100000,-0.100000)"
fill="#000000" stroke="none">
<path d="M246 1905 c-126 -48 -172 -170 -103 -275 39 -58 103 -85 202 -85 111
1 178 38 209 117 34 84 4 172 -75 221 -58 35 -170 46 -233 22z"/>
<path d="M1525 1908 c-94 -22 -184 -52 -239 -79 -32 -16 -60 -29 -62 -29 -2 0
-4 23 -4 50 l0 50 -145 0 -145 0 0 -810 0 -810 145 0 145 0 0 274 0 275 63
-26 c206 -85 487 -94 662 -22 17 7 32 13 35 13 23 4 132 77 173 114 119 111
181 256 179 420 -3 173 -51 293 -166 408 -67 67 -185 131 -291 160 -70 18
-290 26 -350 12z m192 -247 c126 -20 233 -97 282 -201 35 -74 37 -191 4 -262
-29 -62 -96 -134 -155 -164 -165 -83 -419 -62 -585 49 l-43 28 0 203 0 204 68
45 c58 40 103 58 225 94 43 13 139 15 204 4z"/>
<path d="M253 1096 c-61 -20 -99 -51 -122 -99 -67 -139 43 -270 221 -263 182
6 279 171 176 301 -47 61 -183 91 -275 61z"/>
</g>
</svg>
